<?xml version="1.0" encoding="UTF-8" standalone="no"?>
<!-- Created with Inkscape (http://www.inkscape.org/) -->

<svg
   version="1.1"
   id="svg1"
   width="1200"
   height="1200"
   viewBox="0 0 1200 1200"
   sodipodi:docname="RUBY wireframe black alpha.svg"
   inkscape:version="1.4.2 (ebf0e940d0, 2025-05-08)"
   inkscape:export-filename="RUBY wireframe black alpha2.svg"
   inkscape:export-xdpi="96"
   inkscape:export-ydpi="96"
   xmlns:inkscape="http://www.inkscape.org/namespaces/inkscape"
   xmlns:sodipodi="http://sodipodi.sourceforge.net/DTD/sodipodi-0.dtd"
   xmlns:xlink="http://www.w3.org/1999/xlink"
   xmlns="http://www.w3.org/2000/svg"
   xmlns:svg="http://www.w3.org/2000/svg">
  <defs
     id="defs1">
    <filter
       inkscape:collect="always"
       style="color-interpolation-filters:sRGB"
       id="filter2"
       x="-0.068321318"
       y="-0.059943234"
       width="1.1366426"
       height="1.1507267">
      <feGaussianBlur
         inkscape:collect="always"
         stdDeviation="4.8867961"
         id="feGaussianBlur2" />
    </filter>
  </defs>
  <sodipodi:namedview
     id="namedview1"
     pagecolor="#ffffff"
     bordercolor="#000000"
     borderopacity="0.25"
     inkscape:showpageshadow="2"
     inkscape:pageopacity="0.0"
     inkscape:pagecheckerboard="true"
     inkscape:deskcolor="#d1d1d1"
     inkscape:zoom="0.30932164"
     inkscape:cx="567.37059"
     inkscape:cy="438.05535"
     inkscape:window-width="1440"
     inkscape:window-height="900"
     inkscape:window-x="0"
     inkscape:window-y="0"
     inkscape:window-maximized="1"
     inkscape:current-layer="layer1" />
  <g
     inkscape:groupmode="layer"
     inkscape:label="Image"
     id="g1"
     style="display:none"
     transform="translate(-300,-300)">
    <image
       width="1800"
       height="1800"
       preserveAspectRatio="none"
       xlink:href="RUBY%20wireframe%20black%20alpha.png"
       id="image1"
       style="display:inline" />
  </g>
  <g
     inkscape:groupmode="layer"
     id="layer1"
     inkscape:label="Vector"
     transform="translate(-299.75,-299.92495)">
    <path
       style="fill:none;stroke:#ffffff;stroke-width:100;stroke-dasharray:none;stroke-opacity:1;paint-order:stroke fill markers;filter:url(#filter2)"
       d="M 673.25,1294.7188 448,1163.5218 V 900.0015 636.48124 l 22.25,-12.94739 C 482.4875,616.41278 513.875,598.13775 540,582.92266 798.85882,432.1644 899.43164,373.95728 900.37874,374.35132 900.99543,374.60789 1002.75,433.75979 1126.5,505.79998 l 225,130.98216 v 263.22171 263.22175 l -225,130.9965 c -123.75,72.0482 -225.675,131.1535 -226.5,131.3452 -0.825,0.1917 -102.8625,-58.6901 -226.75,-130.8485 z m 304.08461,-59.7435 76.83459,-149.9637 -3.7214,-11.2558 c -14.0336,-42.4469 -35.9762,-84.58336 -59.5037,-114.26582 -14.10915,-17.80018 -36.34585,-38.61944 -47.03316,-44.03511 L 939.06649,913 H 798.44991 c -86.16809,0 -140.48751,0.35978 -140.28324,0.92914 0.97536,2.71877 241.41215,471.00716 241.83333,471.00836 0.275,8e-4 35.07557,-67.4822 77.33461,-149.9622 z M 852.64993,1345.75 C 774.05161,1191.9764 692.90521,1034.5 692.26519,1034.5 c -0.42759,0 -47.48696,27.1777 -104.57636,60.395 -66.72456,38.8234 -103.45408,60.7398 -102.83345,61.3604 1.35576,1.3557 383.45978,223.7036 384.47269,223.7261 0.45544,0.01 -7.04972,-15.394 -16.67814,-34.2315 z M 1006,1336.0097 c 37.125,-21.5774 67.8705,-39.5748 68.3234,-39.9941 1.1992,-1.1103 3.3709,-23.8891 4.1489,-43.5156 1.0551,-26.6189 -1.566,-64.7439 -6.5312,-95 -2.5276,-15.4022 -6.9513,-36.8 -7.791,-37.6857 -0.5619,-0.5927 -43.7453,82.9312 -114.56156,221.5808 l -19.91147,38.9842 4.41147,-2.569 c 2.4263,-1.4129 34.78646,-20.2232 71.91146,-41.8006 z m 140.1504,-82.5544 c 23.2923,-13.5761 42.6854,-24.9908 43.0959,-25.3659 1.57,-1.4347 -8.361,-51.7692 -16.7882,-85.0894 -11.2199,-44.3621 -29.7479,-98.7001 -46.5201,-136.4314 -2.1628,-4.8655 -2.2084,-4.8989 -3.4195,-2.5 -0.6752,1.3373 -10.4904,20.4893 -21.8116,42.5601 l -20.5841,40.1288 1.4775,4.8712 c 7.4384,24.5235 14.4128,60.3522 17.9798,92.3651 1.5313,13.7434 3.53,55.4847 2.8737,60.016 -0.1983,1.3696 -0.5654,9.835 -0.8156,18.812 -0.3673,13.1774 -0.2028,16.2251 0.8538,15.8196 0.7198,-0.2762 20.3661,-11.6099 43.6584,-25.1861 z m 120.1631,-68.9837 c 38.1839,-22.1797 47.549,-28.0159 46.5,-28.9783 -0.7224,-0.6628 -30.1135,-17.7677 -65.3135,-38.0108 -35.2,-20.2431 -65.0922,-37.5119 -66.427,-38.3751 -2.2979,-1.4859 -2.397,-1.464 -1.8618,0.4116 0.311,1.0895 2.8983,9.631 5.7497,18.981 9.3615,30.6972 19.5685,73.7287 25.56,107.7577 l 1.718,9.7577 3.1306,-1.8853 c 1.7218,-1.0369 24.6466,-14.3833 50.944,-29.6585 z M 577.00425,1073.5 c 56.75562,-33 103.40254,-60.5143 103.65982,-61.143 0.25727,-0.6286 -11.36532,-24.02862 -25.82799,-51.99998 L 628.54032,909.5 l 0.002,-9 0.002,-9 26.75332,-51.89138 c 14.71433,-28.54026 26.62944,-51.98688 26.47804,-52.10359 C 680.72959,786.69892 472.77729,666 472.43415,666 472.19537,666 472,771.3375 472,900.08333 c 0,139.46237 0.36626,233.94857 0.9061,233.74997 0.49836,-0.1833 47.34252,-27.3333 104.09815,-60.3333 z M 1327.5812,665.24782 C 1327.0324,664.69902 1118,786.28949 1118,787.15751 c 0,0.36215 12.0276,23.98736 26.728,52.50047 l 26.7281,51.84202 0.01,9 0.01,9 -15.7366,30.22471 c -8.6552,16.62359 -15.7126,30.57359 -15.6831,31 0.03,0.42641 42.217,36.67029 93.75,80.54209 l 93.6964,79.7668 0.2521,-232.68137 c 0.1387,-127.97473 0.062,-232.87171 -0.1709,-233.10441 z m -105.6039,407.38268 c -3.3163,-3.1719 -63.1551,-54.015 -64.6583,-54.9381 -0.6495,-0.3988 0.6319,3.8947 2.8475,9.5412 2.2157,5.6465 4.348,11.097 4.7386,12.1123 0.5536,1.4393 57.0521,35.5145 59.0722,35.6274 0.2625,0.015 -0.6375,-1.0396 -2,-2.3428 z m -128.1942,-64.7513 16.1755,-31.6209 L 1075.413,944.62915 1040.8674,913 h -27.4506 -27.45049 l 2.59046,5.11204 c 1.42476,2.81162 6.22126,9.22412 10.6589,14.25 26.40803,29.90864 49.34773,68.71996 65.82073,111.36126 l 4.3357,11.2232 4.1178,-7.7232 c 2.2648,-4.2478 11.3967,-21.9527 20.2932,-39.3441 z m 38.0061,-74.03062 c 5.6591,-11.0569 10.1153,-20.27743 9.9026,-20.49007 -0.2126,-0.21264 -14.8948,-0.26779 -32.6271,-0.12256 l -32.2405,0.26405 21.8379,20.18166 c 12.0109,11.09992 22.0629,20.20162 22.3379,20.22602 0.275,0.0244 5.1302,-9.0022 10.7892,-20.0591 z M 933,887.57398 C 933,886.71948 741.84117,727.5 740.81525,727.5 c -0.79618,0 -79.97828,152.78023 -82.53521,159.25 -0.39377,0.99634 27.43057,1.25 137.11297,1.25 C 871.07686,888 933,887.80829 933,887.57398 Z m 208.8333,-0.5216 C 1140.9022,884.40522 900.42699,415.07256 900,415.06902 c -0.275,-0.002 -18.42749,35.10246 -40.33886,78.01054 l -39.83886,78.01468 71.23376,146.70288 C 930.2346,798.4837 964.92806,869.7875 968.15261,876.25 l 5.86281,11.75 h 84.07558 c 52.5198,0 83.9506,-0.35567 83.7423,-0.94762 z M 927.593,847.75 C 926.28303,844.8625 900.35466,791.425 869.97441,729 839.59416,666.575 813.06475,611.9864 811.02016,607.69199 l -3.71744,-7.80801 -26.71006,52.23412 C 765.90212,680.84687 753.79651,704.71343 753.6913,705.15489 753.53479,705.8116 928.74882,853 929.68708,853 c 0.15823,0 -0.7841,-2.3625 -2.09408,-5.25 z M 710.69529,731.92121 c 9.47239,-18.38167 17.12852,-33.97064 17.01362,-34.64217 C 727.56297,696.42613 602.12532,598.28883 585.5,586.0206 c -1.13121,-0.83475 -101.01113,56.99638 -100.79261,58.35958 0.18412,1.14854 206.48681,121.46926 207.77899,121.18172 0.54251,-0.12072 8.73652,-15.25903 18.20891,-33.64069 z m 500.83181,-27.52214 c 56.4017,-32.81959 102.4144,-60.07454 102.2504,-60.56657 -0.3053,-0.91576 -383.01826,-223.92507 -383.48448,-223.45885 -0.14168,0.14168 39.41874,77.75636 87.91208,172.47707 60.3272,117.83568 88.5807,172.06171 89.4715,171.71989 0.716,-0.27476 47.4487,-27.35196 103.8505,-60.17154 z M 765.9024,623.96205 C 780.25608,595.89118 792,572.45386 792,571.87913 c 0,-0.76093 -43.83386,-77.41389 -45.58657,-79.71796 -0.14176,-0.18635 -31.53392,17.77552 -69.76035,39.91527 l -69.5026,40.25408 2.64869,2.08474 C 617.90575,580.7958 739.51848,675 739.64884,675 c 0.0858,0 11.89988,-22.96708 26.25356,-51.03795 z M 835.54829,487.75 c 16.34724,-32.0375 31.07203,-60.6608 32.72177,-63.60732 2.9534,-5.27493 2.96285,-5.33812 0.61474,-4.10812 -4.70153,2.46275 -100.40215,58.19782 -101.19778,58.93656 -0.6453,0.59915 36.89119,67.02888 37.87505,67.02888 0.14518,0 13.63899,-26.2125 29.98622,-58.25 z"
       id="path2" />
    <path
       style="display:inline;fill:#000000"
       d="M 673.25,1294.7188 448,1163.5218 V 900.0015 636.48124 l 22.25,-12.94739 C 482.4875,616.41278 513.875,598.13775 540,582.92266 798.85882,432.1644 899.43164,373.95728 900.37874,374.35132 900.99543,374.60789 1002.75,433.75979 1126.5,505.79998 l 225,130.98216 v 263.22171 263.22175 l -225,130.9965 c -123.75,72.0482 -225.675,131.1535 -226.5,131.3452 -0.825,0.1917 -102.8625,-58.6901 -226.75,-130.8485 z m 304.08461,-59.7435 76.83459,-149.9637 -3.7214,-11.2558 c -14.0336,-42.4469 -35.9762,-84.58336 -59.5037,-114.26582 -14.10915,-17.80018 -36.34585,-38.61944 -47.03316,-44.03511 L 939.06649,913 H 798.44991 c -86.16809,0 -140.48751,0.35978 -140.28324,0.92914 0.97536,2.71877 241.41215,471.00716 241.83333,471.00836 0.275,8e-4 35.07557,-67.4822 77.33461,-149.9622 z M 852.64993,1345.75 C 774.05161,1191.9764 692.90521,1034.5 692.26519,1034.5 c -0.42759,0 -47.48696,27.1777 -104.57636,60.395 -66.72456,38.8234 -103.45408,60.7398 -102.83345,61.3604 1.35576,1.3557 383.45978,223.7036 384.47269,223.7261 0.45544,0.01 -7.04972,-15.394 -16.67814,-34.2315 z M 1006,1336.0097 c 37.125,-21.5774 67.8705,-39.5748 68.3234,-39.9941 1.1992,-1.1103 3.3709,-23.8891 4.1489,-43.5156 1.0551,-26.6189 -1.566,-64.7439 -6.5312,-95 -2.5276,-15.4022 -6.9513,-36.8 -7.791,-37.6857 -0.5619,-0.5927 -43.7453,82.9312 -114.56156,221.5808 l -19.91147,38.9842 4.41147,-2.569 c 2.4263,-1.4129 34.78646,-20.2232 71.91146,-41.8006 z m 140.1504,-82.5544 c 23.2923,-13.5761 42.6854,-24.9908 43.0959,-25.3659 1.57,-1.4347 -8.361,-51.7692 -16.7882,-85.0894 -11.2199,-44.3621 -29.7479,-98.7001 -46.5201,-136.4314 -2.1628,-4.8655 -2.2084,-4.8989 -3.4195,-2.5 -0.6752,1.3373 -10.4904,20.4893 -21.8116,42.5601 l -20.5841,40.1288 1.4775,4.8712 c 7.4384,24.5235 14.4128,60.3522 17.9798,92.3651 1.5313,13.7434 3.53,55.4847 2.8737,60.016 -0.1983,1.3696 -0.5654,9.835 -0.8156,18.812 -0.3673,13.1774 -0.2028,16.2251 0.8538,15.8196 0.7198,-0.2762 20.3661,-11.6099 43.6584,-25.1861 z m 120.1631,-68.9837 c 38.1839,-22.1797 47.549,-28.0159 46.5,-28.9783 -0.7224,-0.6628 -30.1135,-17.7677 -65.3135,-38.0108 -35.2,-20.2431 -65.0922,-37.5119 -66.427,-38.3751 -2.2979,-1.4859 -2.397,-1.464 -1.8618,0.4116 0.311,1.0895 2.8983,9.631 5.7497,18.981 9.3615,30.6972 19.5685,73.7287 25.56,107.7577 l 1.718,9.7577 3.1306,-1.8853 c 1.7218,-1.0369 24.6466,-14.3833 50.944,-29.6585 z M 577.00425,1073.5 c 56.75562,-33 103.40254,-60.5143 103.65982,-61.143 0.25727,-0.6286 -11.36532,-24.02862 -25.82799,-51.99998 L 628.54032,909.5 l 0.002,-9 0.002,-9 26.75332,-51.89138 c 14.71433,-28.54026 26.62944,-51.98688 26.47804,-52.10359 C 680.72959,786.69892 472.77729,666 472.43415,666 472.19537,666 472,771.3375 472,900.08333 c 0,139.46237 0.36626,233.94857 0.9061,233.74997 0.49836,-0.1833 47.34252,-27.3333 104.09815,-60.3333 z M 1327.5812,665.24782 C 1327.0324,664.69902 1118,786.28949 1118,787.15751 c 0,0.36215 12.0276,23.98736 26.728,52.50047 l 26.7281,51.84202 0.01,9 0.01,9 -15.7366,30.22471 c -8.6552,16.62359 -15.7126,30.57359 -15.6831,31 0.03,0.42641 42.217,36.67029 93.75,80.54209 l 93.6964,79.7668 0.2521,-232.68137 c 0.1387,-127.97473 0.062,-232.87171 -0.1709,-233.10441 z m -105.6039,407.38268 c -3.3163,-3.1719 -63.1551,-54.015 -64.6583,-54.9381 -0.6495,-0.3988 0.6319,3.8947 2.8475,9.5412 2.2157,5.6465 4.348,11.097 4.7386,12.1123 0.5536,1.4393 57.0521,35.5145 59.0722,35.6274 0.2625,0.015 -0.6375,-1.0396 -2,-2.3428 z m -128.1942,-64.7513 16.1755,-31.6209 L 1075.413,944.62915 1040.8674,913 h -27.4506 -27.45049 l 2.59046,5.11204 c 1.42476,2.81162 6.22126,9.22412 10.6589,14.25 26.40803,29.90864 49.34773,68.71996 65.82073,111.36126 l 4.3357,11.2232 4.1178,-7.7232 c 2.2648,-4.2478 11.3967,-21.9527 20.2932,-39.3441 z m 38.0061,-74.03062 c 5.6591,-11.0569 10.1153,-20.27743 9.9026,-20.49007 -0.2126,-0.21264 -14.8948,-0.26779 -32.6271,-0.12256 l -32.2405,0.26405 21.8379,20.18166 c 12.0109,11.09992 22.0629,20.20162 22.3379,20.22602 0.275,0.0244 5.1302,-9.0022 10.7892,-20.0591 z M 933,887.57398 C 933,886.71948 741.84117,727.5 740.81525,727.5 c -0.79618,0 -79.97828,152.78023 -82.53521,159.25 -0.39377,0.99634 27.43057,1.25 137.11297,1.25 C 871.07686,888 933,887.80829 933,887.57398 Z m 208.8333,-0.5216 C 1140.9022,884.40522 900.42699,415.07256 900,415.06902 c -0.275,-0.002 -18.42749,35.10246 -40.33886,78.01054 l -39.83886,78.01468 71.23376,146.70288 C 930.2346,798.4837 964.92806,869.7875 968.15261,876.25 l 5.86281,11.75 h 84.07558 c 52.5198,0 83.9506,-0.35567 83.7423,-0.94762 z M 927.593,847.75 C 926.28303,844.8625 900.35466,791.425 869.97441,729 839.59416,666.575 813.06475,611.9864 811.02016,607.69199 l -3.71744,-7.80801 -26.71006,52.23412 C 765.90212,680.84687 753.79651,704.71343 753.6913,705.15489 753.53479,705.8116 928.74882,853 929.68708,853 c 0.15823,0 -0.7841,-2.3625 -2.09408,-5.25 z M 710.69529,731.92121 c 9.47239,-18.38167 17.12852,-33.97064 17.01362,-34.64217 C 727.56297,696.42613 602.12532,598.28883 585.5,586.0206 c -1.13121,-0.83475 -101.01113,56.99638 -100.79261,58.35958 0.18412,1.14854 206.48681,121.46926 207.77899,121.18172 0.54251,-0.12072 8.73652,-15.25903 18.20891,-33.64069 z m 500.83181,-27.52214 c 56.4017,-32.81959 102.4144,-60.07454 102.2504,-60.56657 -0.3053,-0.91576 -383.01826,-223.92507 -383.48448,-223.45885 -0.14168,0.14168 39.41874,77.75636 87.91208,172.47707 60.3272,117.83568 88.5807,172.06171 89.4715,171.71989 0.716,-0.27476 47.4487,-27.35196 103.8505,-60.17154 z M 765.9024,623.96205 C 780.25608,595.89118 792,572.45386 792,571.87913 c 0,-0.76093 -43.83386,-77.41389 -45.58657,-79.71796 -0.14176,-0.18635 -31.53392,17.77552 -69.76035,39.91527 l -69.5026,40.25408 2.64869,2.08474 C 617.90575,580.7958 739.51848,675 739.64884,675 c 0.0858,0 11.89988,-22.96708 26.25356,-51.03795 z M 835.54829,487.75 c 16.34724,-32.0375 31.07203,-60.6608 32.72177,-63.60732 2.9534,-5.27493 2.96285,-5.33812 0.61474,-4.10812 -4.70153,2.46275 -100.40215,58.19782 -101.19778,58.93656 -0.6453,0.59915 36.89119,67.02888 37.87505,67.02888 0.14518,0 13.63899,-26.2125 29.98622,-58.25 z"
       id="path1" />
  </g>
</svg>
